<?xml version="1.0" standalone="no"?>
<!DOCTYPE svg PUBLIC "-//W3C//DTD SVG 20010904//EN"
 "http://www.w3.org/TR/2001/REC-SVG-20010904/DTD/svg10.dtd">
<svg version="1.0" xmlns="http://www.w3.org/2000/svg"
 width="2341.000000pt" height="1302.000000pt" viewBox="0 0 2341.000000 1302.000000"
 preserveAspectRatio="xMidYMid meet">

<g transform="translate(0.000000,1302.000000) scale(0.100000,-0.100000)"
fill="#000000" stroke="none">
<path d="M11330 12209 c-266 -221 -639 -584 -865 -843 -528 -603 -817 -1105
-927 -1606 -20 -94 -22 -132 -22 -360 0 -275 12 -391 60 -584 30 -120 92 -281
137 -356 l33 -55 -37 -116 c-101 -316 -120 -591 -59 -870 123 -565 551 -991
1228 -1223 131 -45 308 -90 400 -101 l52 -7 0 136 c0 344 -78 673 -235 991
-189 384 -461 700 -855 995 -74 55 -163 128 -197 161 l-61 60 23 54 c212 479
606 1062 1117 1655 142 164 287 324 298 328 14 6 349 -375 553 -630 386 -483
712 -993 867 -1356 l23 -53 -39 -40 c-21 -22 -120 -102 -219 -177 -398 -303
-677 -629 -860 -1006 -150 -309 -219 -590 -232 -943 l-6 -173 23 0 c52 0 276
53 404 95 674 223 1109 635 1247 1181 75 299 63 574 -42 910 l-41 130 31 50
c41 68 105 229 136 344 75 283 92 700 39 960 -95 464 -384 977 -868 1540 -166
194 -457 493 -652 672 -149 135 -353 308 -363 308 -3 -1 -44 -33 -91 -71z
m189 -276 c708 -636 1219 -1275 1451 -1816 54 -127 109 -299 131 -412 21 -108
19 -539 -4 -677 -21 -122 -57 -263 -85 -328 l-19 -45 -67 133 c-227 446 -620
1002 -1079 1526 -117 133 -415 456 -421 456 -5 0 -207 -208 -284 -293 -503
-549 -957 -1174 -1213 -1672 l-78 -150 -21 50 c-87 202 -135 671 -96 933 67
452 339 950 841 1538 189 222 811 834 848 834 5 0 48 -35 96 -77z m-1379
-3905 c522 -390 870 -933 954 -1488 25 -167 28 -213 13 -207 -7 3 -47 14 -88
26 -41 11 -120 38 -175 60 -550 214 -888 574 -991 1054 -14 63 -18 127 -18
282 1 204 2 215 51 402 l17 61 61 -52 c33 -28 113 -90 176 -138z m2834 64 c62
-259 57 -501 -16 -747 -43 -149 -145 -329 -260 -463 -192 -223 -544 -432 -895
-530 l-73 -20 0 39 c0 60 28 233 55 339 37 148 80 263 155 415 177 360 428
653 795 927 55 41 122 94 148 116 27 23 52 40 57 37 5 -3 20 -53 34 -113z"/>
<path d="M9385 10143 c-650 -806 -859 -1859 -554 -2778 213 -640 676 -1160
1319 -1481 554 -277 1152 -374 1709 -278 930 159 1723 744 2072 1525 424 953
246 2128 -456 3002 -48 60 -89 106 -91 104 -2 -2 10 -38 26 -80 39 -102 75
-237 100 -379 18 -103 26 -126 72 -205 266 -459 384 -963 349 -1495 -40 -612
-250 -1099 -651 -1512 -300 -309 -718 -557 -1150 -681 -593 -171 -1155 -131
-1740 121 -820 354 -1349 1047 -1455 1904 -20 163 -20 504 0 674 42 355 158
692 353 1019 27 46 38 82 53 170 24 140 58 270 102 387 19 49 33 90 31 90 -1
0 -42 -48 -89 -107z"/>
<path d="M5020 3990 l0 -1120 115 0 115 0 0 519 0 518 288 6 c311 6 386 14
504 53 186 61 320 204 363 386 8 35 15 106 15 158 0 52 -7 123 -15 158 -44
185 -188 337 -375 396 -111 36 -261 46 -657 46 l-353 0 0 -1120z m890 876 c74
-19 156 -69 194 -118 14 -19 38 -61 53 -93 23 -50 27 -74 27 -145 0 -74 -4
-93 -30 -150 -43 -91 -84 -134 -167 -175 -97 -46 -173 -55 -483 -55 l-254 0 0
381 0 381 298 -5 c227 -4 312 -9 362 -21z"/>
<path d="M7285 4553 c-98 -36 -170 -90 -262 -198 l-43 -50 0 113 0 112 -115 0
-115 0 0 -830 0 -830 115 0 115 0 0 423 c0 569 12 690 85 842 60 125 150 205
256 227 44 9 64 8 109 -5 30 -9 55 -15 56 -14 83 124 104 158 104 167 0 6 -21
20 -47 32 -67 29 -191 35 -258 11z"/>
<path d="M8375 4553 c-171 -36 -303 -111 -432 -246 -97 -102 -163 -209 -205
-337 -27 -83 -31 -113 -36 -237 -6 -181 16 -287 89 -431 151 -300 429 -472
764 -472 246 0 430 69 590 221 209 199 308 467 275 748 -32 280 -200 535 -441
670 -162 91 -411 126 -604 84z m283 -193 c92 -15 148 -36 229 -86 140 -87 262
-254 299 -410 21 -89 21 -259 -1 -339 -59 -229 -228 -405 -451 -471 -73 -22
-246 -25 -324 -5 -30 7 -93 31 -140 54 -121 59 -211 150 -274 278 -61 123 -79
212 -73 349 8 184 71 325 202 455 146 144 336 207 533 175z"/>
<path d="M10059 4555 c-315 -86 -431 -479 -211 -716 66 -72 128 -116 283 -200
259 -141 312 -198 313 -334 0 -59 -4 -78 -26 -116 -33 -57 -87 -105 -147 -133
-35 -15 -66 -20 -131 -20 -74 0 -94 4 -151 31 -36 17 -95 55 -131 86 l-66 56
-67 -76 -66 -76 43 -44 c177 -182 477 -236 696 -126 69 35 160 126 199 200 42
79 56 152 51 259 -5 98 -31 173 -88 244 -43 55 -159 139 -280 205 -161 88
-267 162 -299 209 -85 123 -56 250 73 331 43 26 58 30 125 30 67 0 85 -5 151
-37 41 -20 100 -57 130 -82 l55 -46 67 67 c38 37 68 71 68 75 0 15 -144 126
-209 161 -37 20 -93 43 -126 52 -70 18 -192 18 -256 0z"/>
<path d="M11725 4554 c-160 -35 -266 -95 -392 -222 l-93 -94 0 146 0 146 -105
0 -105 0 0 -1135 0 -1135 105 0 105 0 0 447 0 447 58 -59 c115 -118 218 -184
362 -231 78 -26 98 -28 240 -28 133 -1 166 2 234 22 285 82 519 324 598 617
17 65 21 107 21 230 0 133 -3 160 -27 238 -35 117 -82 208 -155 300 -111 140
-247 235 -414 290 -80 26 -110 30 -227 33 -96 3 -155 -1 -205 -12z m362 -219
c131 -44 235 -118 311 -219 120 -162 166 -363 127 -551 -49 -235 -239 -442
-470 -511 -44 -14 -91 -18 -175 -18 -98 1 -127 5 -195 28 -274 93 -438 307
-452 591 -7 135 14 244 68 354 85 173 265 311 449 346 106 21 240 12 337 -20z"/>
<path d="M13765 4555 c-262 -57 -478 -228 -595 -470 -70 -146 -85 -211 -84
-385 1 -165 19 -252 79 -377 106 -225 306 -397 537 -464 105 -30 288 -37 399
-15 159 32 296 106 424 228 38 38 71 68 72 68 2 0 3 -61 3 -135 l0 -135 105 0
105 0 0 830 0 830 -105 0 -105 0 0 -145 0 -146 -92 93 c-129 129 -244 193
-404 224 -92 17 -258 17 -339 -1z m320 -200 c251 -45 460 -255 511 -515 12
-60 15 -113 11 -185 -14 -284 -178 -497 -452 -591 -68 -24 -97 -28 -195 -28
-191 -1 -319 52 -456 189 -240 238 -270 593 -75 872 147 209 392 305 656 258z"/>
<path d="M15990 4564 c-186 -34 -325 -92 -450 -189 -169 -132 -285 -330 -321
-549 -16 -103 -7 -280 21 -376 57 -199 203 -383 395 -499 71 -43 227 -97 325
-112 106 -16 323 -6 430 21 198 49 383 170 491 322 l20 27 -87 56 -87 57 -39
-45 c-82 -97 -232 -188 -368 -224 -100 -26 -292 -23 -395 6 -125 35 -209 84
-300 176 -133 133 -195 283 -195 470 0 187 58 325 194 461 123 123 262 185
449 199 151 12 324 -25 445 -97 31 -18 92 -68 135 -110 l80 -78 83 52 83 52
-17 29 c-57 98 -209 223 -334 274 -141 58 -223 75 -383 78 -82 2 -161 1 -175
-1z"/>
<path d="M17890 4556 c-152 -33 -269 -91 -376 -190 -195 -177 -294 -403 -294
-667 0 -191 44 -340 147 -498 164 -253 393 -371 717 -371 292 1 525 115 691
341 40 55 95 148 95 163 0 10 -173 97 -180 89 -4 -4 -31 -43 -60 -86 -76 -111
-156 -182 -265 -233 -49 -23 -115 -48 -145 -55 -81 -20 -252 -17 -325 5 -248
74 -424 294 -450 564 l-8 72 748 0 748 0 -7 83 c-18 216 -89 384 -226 530
-114 122 -228 193 -381 237 -96 28 -331 36 -429 16z m305 -201 c174 -31 348
-151 422 -290 32 -61 77 -184 70 -191 -2 -2 -279 -3 -615 -2 l-610 3 19 55
c39 114 82 184 159 261 146 148 334 203 555 164z"/>
</g>
</svg>
